<svg id="Calendar_and_date" width="24" height="24" data-name="Calendar and date" xmlns="http://www.w3.org/2000/svg"
    viewBox="0 0 104 104">
    <path
        d="M61,17V55a2.006,2.006,0,0,1-2,2H5a2.006,2.006,0,0,1-2-2V17ZM54,51V47a1,1,0,0,0-1-1H49a1,1,0,0,0-1,1v4a1,1,0,0,0,1,1h4A1,1,0,0,0,54,51Zm0-12V35a1,1,0,0,0-1-1H49a1,1,0,0,0-1,1v4a1,1,0,0,0,1,1h4A1,1,0,0,0,54,39Zm0-12V23a1,1,0,0,0-1-1H49a1,1,0,0,0-1,1v4a1,1,0,0,0,1,1h4A1,1,0,0,0,54,27Zm-6,4a10,10,0,0,0-19-4.35V23a1,1,0,0,0-1-1H24a1,1,0,0,0-1,1v4a1,1,0,0,0,1,1h4a.975.975,0,0,0,.51-.14A9.887,9.887,0,0,0,28,31a9.728,9.728,0,0,0,.9,3.58A.986.986,0,0,0,28,34H24a1,1,0,0,0-1,1v4a1,1,0,0,0,1,1h4a1,1,0,0,0,1-1V35a.857.857,0,0,0-.07-.36c1.69,3.95,5.3,8.73,7.41,11.36H36a1,1,0,0,0-1,1v4a1,1,0,0,0,1,1h4a1,1,0,0,0,1-1V47a1,1,0,0,0-1-1h-.34C42.5,42.47,48,35.1,48,31ZM29,51V47a1,1,0,0,0-1-1H24a1,1,0,0,0-1,1v4a1,1,0,0,0,1,1h4A1,1,0,0,0,29,51ZM16,51V47a1,1,0,0,0-1-1H11a1,1,0,0,0-1,1v4a1,1,0,0,0,1,1h4A1,1,0,0,0,16,51Zm0-12V35a1,1,0,0,0-1-1H11a1,1,0,0,0-1,1v4a1,1,0,0,0,1,1h4A1,1,0,0,0,16,39Zm0-12V23a1,1,0,0,0-1-1H11a1,1,0,0,0-1,1v4a1,1,0,0,0,1,1h4A1,1,0,0,0,16,27Z"
        style="fill:#ffffff" />
    <path d="M61,11v6H3V11A2.006,2.006,0,0,1,5,9H9a3,3,0,0,0,6,0H49a3,3,0,0,0,6,0h4A2.006,2.006,0,0,1,61,11Z"
        style="fill:#ffffff" />
    <circle cx="38" cy="30" r="3" style="fill:#ffffff" />
    <path
        d="M59,8H56V7a4,4,0,0,0-8,0V8H16V7A4,4,0,0,0,8,7V8H5a3.009,3.009,0,0,0-3,3V55a3.009,3.009,0,0,0,3,3H59a3.009,3.009,0,0,0,3-3V11A3.009,3.009,0,0,0,59,8ZM50,7a2.006,2.006,0,0,1,2-2,2.015,2.015,0,0,1,2,2V9a2,2,0,0,1-4,0ZM10,7a2.006,2.006,0,0,1,2-2,2.015,2.015,0,0,1,2,2V9a2,2,0,0,1-4,0ZM60,55a1,1,0,0,1-1,1H5a1,1,0,0,1-1-1V18H60Zm0-39H4V11a1,1,0,0,1,1-1H8.14a3.983,3.983,0,0,0,7.72,0H48.14a3.983,3.983,0,0,0,7.72,0H59a1,1,0,0,1,1,1Z"
        style="fill:#650672" />
    <path d="M11,41h4a2,2,0,0,0,2-2V35a2,2,0,0,0-2-2H11a2,2,0,0,0-2,2v4A2,2,0,0,0,11,41Zm0-6h4v4H11Z"
        style="fill:#650672" />
    <path d="M11,53h4a2,2,0,0,0,2-2V47a2,2,0,0,0-2-2H11a2,2,0,0,0-2,2v4A2,2,0,0,0,11,53Zm0-6h4v4H11Z"
        style="fill:#650672" />
    <path
        d="M53,29a2.006,2.006,0,0,0,2-2V23a2.006,2.006,0,0,0-2-2H49a2.006,2.006,0,0,0-2,2v1.7a10.962,10.962,0,0,0-17-1.23V23a2.006,2.006,0,0,0-2-2H24a2.006,2.006,0,0,0-2,2v4a2.006,2.006,0,0,0,2,2h3.19A11.023,11.023,0,0,0,27,31a7.506,7.506,0,0,0,.31,2H24a2.006,2.006,0,0,0-2,2v4a2.006,2.006,0,0,0,2,2h4a2.006,2.006,0,0,0,2-2v-.2a67.316,67.316,0,0,0,4.68,6.71A1.977,1.977,0,0,0,34,47v4a2.006,2.006,0,0,0,2,2h4a2.006,2.006,0,0,0,2-2V47a1.977,1.977,0,0,0-.68-1.49A62.313,62.313,0,0,0,47,37.04V39a2.006,2.006,0,0,0,2,2h4a2.006,2.006,0,0,0,2-2V35a2.006,2.006,0,0,0-2-2H49c-.11,0-.21.02-.32.03A7.752,7.752,0,0,0,49,31a11.244,11.244,0,0,0-.19-2.02A1.108,1.108,0,0,0,49,29Zm-4-6h4v4H49ZM28,39H24V35h4Zm0-12.56c-.08.19-.16.37-.24.56H24V23h4ZM40,51H36V47.17c.69.85,1.16,1.39,1.25,1.49a1,1,0,0,0,1.5,0c.09-.1.56-.64,1.25-1.49Zm-2-4.54C34.93,42.77,29,34.87,29,31a9,9,0,0,1,18,0C47,34.87,41.07,42.77,38,46.46ZM49,35h4v4H49Z"
        style="fill:#650672" />
    <path d="M11,29h4a2,2,0,0,0,2-2V23a2,2,0,0,0-2-2H11a2,2,0,0,0-2,2v4A2,2,0,0,0,11,29Zm0-6h4v4H11Z"
        style="fill:#650672" />
    <path d="M24,53h4a2,2,0,0,0,2-2V47a2,2,0,0,0-2-2H24a2,2,0,0,0-2,2v4A2,2,0,0,0,24,53Zm0-6h4v4H24Z"
        style="fill:#650672" />
    <path d="M53,45H49a2,2,0,0,0-2,2v4a2,2,0,0,0,2,2h4a2,2,0,0,0,2-2V47A2,2,0,0,0,53,45Zm-4,6V47h4v4Z"
        style="fill:#650672" />
    <path d="M38,34a4,4,0,1,0-4-4A4,4,0,0,0,38,34Zm0-6a2,2,0,1,1-2,2A2,2,0,0,1,38,28Z" style="fill:#650672" />
</svg>