<svg width="22" height="22" viewBox="0 0 104 104" fill="none" xmlns="http://www.w3.org/2000/svg">
    <path
        d="M61 39.44V47.92L41.78 28.71L37.46 33.02C37.31 33.01 37.16 33 37 33C35.4087 33 33.8826 33.6321 32.7574 34.7574C31.6321 35.8826 31 37.4087 31 39C31 39.1505 31.0101 39.3008 31.03 39.45L26.22 44.26L35.91 53.96L32 55L27.19 53.72L21.98 48.51L18.96 51.52L17 51L3 55V53.34L14.91 41.44L7.13 33.66L3 37.79V32.13L4.3 30.83L3 29.53V21.05L8.54 26.59L11.92 23.21C12.543 24.4267 13.2796 25.5819 14.12 26.66L11.37 29.41L19.15 37.19L34.71 21.64L26.93 13.86L22.69 18.1C22.2509 16.7876 21.3711 15.6675 20.2 14.93L24.1 11.03L23.91 10.84L32 13L34.02 12.46L38.95 17.39L47.26 9.07999L47.42 9.11999C46.4982 10.2021 45.9945 11.5785 46 13C46 15.39 48.14 18.5 49.87 20.61L46.02 24.46L61 39.44Z"
        fill="#ffffff" />
    <path
        d="M57.98 12.5C57.97 12.37 57.95 12.24 57.93 12.12C57.7003 10.6284 56.9169 9.2782 55.7361 8.33846C54.5552 7.39871 53.0636 6.93848 51.5585 7.0495C50.0535 7.16052 48.6455 7.83464 47.6153 8.93747C46.5851 10.0403 46.0084 11.4909 46 13C46 15.39 48.14 18.5 49.87 20.61C51.03 22.03 52 23 52 23C52 23 58 17 58 13C58 12.83 57.99 12.66 57.98 12.5ZM50 13C50 12.6044 50.1173 12.2178 50.3371 11.8889C50.5568 11.56 50.8692 11.3036 51.2346 11.1522C51.6001 11.0009 52.0022 10.9613 52.3902 11.0384C52.7781 11.1156 53.1345 11.3061 53.4142 11.5858C53.6939 11.8655 53.8844 12.2219 53.9616 12.6098C54.0387 12.9978 53.9991 13.3999 53.8478 13.7654C53.6964 14.1308 53.44 14.4432 53.1111 14.6629C52.7822 14.8827 52.3956 15 52 15C51.4701 14.9984 50.9623 14.7872 50.5875 14.4125C50.2128 14.0377 50.0016 13.53 50 13Z"
        fill="#ffffff" />
    <path
        d="M37.46 33.02C37.31 33.01 37.16 33 37 33C35.4087 33 33.8826 33.6321 32.7574 34.7574C31.6321 35.8826 31 37.4087 31 39C31 39.1505 31.0101 39.3008 31.03 39.45C31.43 43.43 37 49 37 49C37 49 43 43 43 39C42.9994 37.4887 42.4285 36.0334 41.4015 34.9247C40.3744 33.8161 38.9668 33.1359 37.46 33.02ZM37 41C36.6044 41 36.2178 40.8827 35.8889 40.6629C35.56 40.4432 35.3036 40.1308 35.1522 39.7654C35.0009 39.3999 34.9613 38.9978 35.0384 38.6098C35.1156 38.2219 35.3061 37.8655 35.5858 37.5858C35.8655 37.3061 36.2219 37.1156 36.6098 37.0384C36.9978 36.9613 37.3999 37.0009 37.7654 37.1522C38.1308 37.3036 38.4432 37.56 38.6629 37.8889C38.8827 38.2178 39 38.6044 39 39C38.9984 39.5299 38.7872 40.0377 38.4125 40.4125C38.0377 40.7872 37.5299 40.9984 37 41Z"
        fill="#ffffff" />
    <path
        d="M22.69 18.1C22.2509 16.7876 21.3711 15.6675 20.2 14.93C19.2446 14.3195 18.1338 13.9966 17 14C15.4087 14 13.8826 14.6322 12.7574 15.7574C11.6321 16.8826 11 18.4087 11 20C11.0638 21.1252 11.3781 22.2219 11.92 23.21C12.543 24.4267 13.2796 25.5819 14.12 26.66C15.0118 27.8304 15.9735 28.9458 17 30C17 30 23 24 23 20C22.9996 19.3541 22.8949 18.7125 22.69 18.1ZM15 20C15.0016 19.4701 15.2128 18.9623 15.5875 18.5875C15.9623 18.2128 16.4701 18.0016 17 18C17.0403 17.9984 17.0806 18.0017 17.12 18.01C17.5053 18.0319 17.8761 18.1647 18.1875 18.3925C18.499 18.6204 18.738 18.9335 18.8755 19.2941C19.013 19.6546 19.0433 20.0473 18.9626 20.4247C18.882 20.8021 18.6939 21.1481 18.421 21.421C18.1481 21.6939 17.8021 21.882 17.4247 21.9627C17.0473 22.0433 16.6546 22.013 16.294 21.8755C15.9335 21.738 15.6204 21.499 15.3925 21.1876C15.1647 20.8761 15.0318 20.5053 15.01 20.12C15.0017 20.0806 14.9984 20.0403 15 20Z"
        fill="#ffffff" />
    <path
        d="M61.27 12.04L58.79 11.33C58.4972 10.13 57.8914 9.02911 57.0344 8.13952C56.1775 7.24994 55.1 6.60347 53.9117 6.26601C52.7235 5.92856 51.4671 5.91217 50.2705 6.21854C49.0738 6.5249 47.9799 7.14306 47.1 8.01C46.9797 7.99667 46.8581 8.00343 46.74 8.03L32 11.96L17.26 8.03C17.0854 7.98821 16.9029 7.99165 16.73 8.04L2.73 12.04C2.52042 12.0988 2.33574 12.2243 2.20399 12.3976C2.07224 12.5708 2.00062 12.7823 2 13V55C2.00107 55.1551 2.03768 55.3078 2.10703 55.4465C2.17637 55.5852 2.2766 55.7061 2.4 55.8C2.52194 55.8937 2.66443 55.9571 2.8157 55.985C2.96697 56.0128 3.12269 56.0042 3.27 55.96L17.01 52.04L31.74 55.97C31.911 56.01 32.089 56.01 32.26 55.97L46.99 52.04L60.73 55.96C60.8172 55.9879 60.9084 56.0014 61 56C61.2652 56 61.5196 55.8947 61.7071 55.7071C61.8946 55.5196 62 55.2652 62 55V13C61.9994 12.7823 61.9278 12.5708 61.796 12.3976C61.6643 12.2243 61.4796 12.0988 61.27 12.04ZM52 7.99999C53.3261 7.99999 54.5979 8.52678 55.5355 9.46446C56.4732 10.4022 57 11.6739 57 13C57 15.57 53.85 19.53 52 21.55C50.15 19.53 47 15.57 47 13C47 11.6739 47.5268 10.4022 48.4645 9.46446C49.4021 8.52678 50.6739 7.99999 52 7.99999ZM44.12 10.8L38.95 15.98L35.95 12.98L44.12 10.8ZM4 13.75L17.01 10.04L22.27 11.44L20.02 13.7C19.0802 13.2386 18.047 12.9991 17 13C15.1441 13.0021 13.3649 13.7403 12.0526 15.0526C10.7403 16.3649 10.0021 18.1441 10 20C10.0421 21.0342 10.2867 22.05 10.72 22.99L8.54 25.18L4 20.64V13.75ZM23.81 18.4L26.93 15.27L33.3 21.64L19.15 35.78L12.78 29.41L14.02 28.17C15.11 29.51 16.05 30.47 16.29 30.71C16.4796 30.8959 16.7345 31.0001 17 31.0001C17.2655 31.0001 17.5204 30.8959 17.71 30.71C18.35 30.06 24 24.29 24 20C23.9984 19.4611 23.9346 18.9243 23.81 18.4ZM17 28.55C15.15 26.53 12 22.57 12 20C12 18.6739 12.5268 17.4022 13.4645 16.4645C14.4021 15.5268 15.6739 15 17 15C18.3261 15 19.5979 15.5268 20.5355 16.4645C21.4732 17.4022 22 18.6739 22 20C22 22.57 18.85 26.53 17 28.55ZM4 38.2L7.13 35.07L13.5 41.44L4 50.93V38.2ZM20.89 51L21.98 49.92L23.85 51.79L20.89 51ZM60 53.67L47.27 50.04C47.0971 49.9917 46.9146 49.9882 46.74 50.03L36.21 52.84L27.63 44.26L30.49 41.41C31.87 45.19 35.76 49.18 36.29 49.71C36.4796 49.8959 36.7345 50.0001 37 50.0001C37.2655 50.0001 37.5204 49.8959 37.71 49.71C38.35 49.06 44 43.29 44 39C43.9968 37.5753 43.5597 36.1853 42.7469 35.0151C41.9341 33.845 40.784 32.9503 39.45 32.45L41.78 30.12L60 48.33V53.67ZM32 39C32 37.6739 32.5268 36.4022 33.4645 35.4645C34.4021 34.5268 35.6739 34 37 34C38.3261 34 39.5979 34.5268 40.5355 35.4645C41.4732 36.4022 42 37.6739 42 39C42 41.57 38.85 45.53 37 47.55C35.15 45.53 32 41.57 32 39ZM60 45.51L42.49 28C42.3012 27.8127 42.046 27.7075 41.78 27.7075C41.514 27.7075 41.2588 27.8127 41.07 28L37.06 32H37C35.1441 32.0021 33.3649 32.7403 32.0526 34.0526C30.7403 35.3649 30.0021 37.1441 30 39V39.06L25.51 43.55C25.3226 43.7388 25.2175 43.994 25.2175 44.26C25.2175 44.526 25.3226 44.7812 25.51 44.97L33.98 53.44L32 53.96L27.7 52.82L22.69 47.8C22.5012 47.6127 22.246 47.5075 21.98 47.5075C21.714 47.5075 21.4588 47.6127 21.27 47.8L18.66 50.41L17.26 50.03C17.0854 49.9882 16.9029 49.9917 16.73 50.04L4.11 53.64L15.62 42.15C15.8042 41.9593 15.908 41.7051 15.91 41.44C15.9061 41.1753 15.8026 40.9218 15.62 40.73L7.84 32.95C7.65119 32.7627 7.39599 32.6575 7.13 32.6575C6.86401 32.6575 6.60881 32.7627 6.42 32.95L4 35.38V32.54L5.01 31.54C5.19735 31.3512 5.30248 31.096 5.30248 30.83C5.30248 30.564 5.19735 30.3088 5.01 30.12L4 29.12V23.46L7.83 27.3C8.01956 27.4859 8.27449 27.5901 8.54 27.5901C8.80551 27.5901 9.06044 27.4859 9.25 27.3L11.68 24.86C12.03 25.45 12.41 26.02 12.8 26.57L10.66 28.7C10.4726 28.8888 10.3675 29.144 10.3675 29.41C10.3675 29.676 10.4726 29.9312 10.66 30.12L18.44 37.9C18.6296 38.0859 18.8845 38.1901 19.15 38.1901C19.4155 38.1901 19.6704 38.0859 19.86 37.9L35.42 22.35C35.6059 22.1604 35.7101 21.9055 35.7101 21.64C35.7101 21.3745 35.6059 21.1196 35.42 20.93L27.64 13.15C27.4512 12.9627 27.196 12.8575 26.93 12.8575C26.664 12.8575 26.4088 12.9627 26.22 13.15L22.99 16.39C22.6422 15.813 22.2108 15.2907 21.71 14.84L24.51 12.04L31.74 13.97C31.911 14.01 32.089 14.01 32.26 13.97L33.72 13.58L38.24 18.1C38.4296 18.2859 38.6845 18.3901 38.95 18.3901C39.2155 18.3901 39.4704 18.2859 39.66 18.1L45.01 12.74C45.01 12.83 45 12.91 45 13C45 15.44 46.83 18.36 48.52 20.54L45.31 23.75C45.1241 23.9396 45.0199 24.1945 45.0199 24.46C45.0199 24.7255 45.1241 24.9804 45.31 25.17L60 39.85V45.51ZM60 37.03L47.43 24.46L49.8 22.09C50.53 22.93 51.11 23.53 51.29 23.71C51.4796 23.8959 51.7345 24.0001 52 24.0001C52.2655 24.0001 52.5204 23.8959 52.71 23.71C53.33 23.09 58.6 17.69 58.96 13.46L60 13.75V37.03Z"
        fill="#650672" />
    <path
        d="M17 17C16.4067 17 15.8266 17.1759 15.3333 17.5056C14.8399 17.8352 14.4554 18.3038 14.2284 18.8519C14.0013 19.4001 13.9419 20.0033 14.0576 20.5853C14.1734 21.1672 14.4591 21.7018 14.8787 22.1213C15.2982 22.5409 15.8328 22.8266 16.4147 22.9424C16.9967 23.0581 17.5999 22.9987 18.1481 22.7716C18.6962 22.5446 19.1648 22.1601 19.4944 21.6667C19.8241 21.1734 20 20.5933 20 20C20 19.2044 19.6839 18.4413 19.1213 17.8787C18.5587 17.3161 17.7957 17 17 17ZM17 21C16.8022 21 16.6089 20.9414 16.4444 20.8315C16.28 20.7216 16.1518 20.5654 16.0761 20.3827C16.0004 20.2 15.9806 19.9989 16.0192 19.8049C16.0578 19.6109 16.153 19.4327 16.2929 19.2929C16.4327 19.153 16.6109 19.0578 16.8049 19.0192C16.9989 18.9806 17.2 19.0004 17.3827 19.0761C17.5654 19.1518 17.7216 19.28 17.8315 19.4444C17.9414 19.6089 18 19.8022 18 20C18 20.2652 17.8946 20.5196 17.7071 20.7071C17.5196 20.8946 17.2652 21 17 21Z"
        fill="#650672" />
    <path
        d="M37 42C37.5933 42 38.1734 41.8241 38.6667 41.4944C39.1601 41.1648 39.5446 40.6962 39.7716 40.148C39.9987 39.5999 40.0581 38.9967 39.9424 38.4147C39.8266 37.8328 39.5409 37.2982 39.1213 36.8787C38.7018 36.4591 38.1672 36.1734 37.5853 36.0576C37.0033 35.9419 36.4001 36.0013 35.852 36.2284C35.3038 36.4554 34.8352 36.8399 34.5056 37.3333C34.1759 37.8266 34 38.4067 34 39C34 39.7957 34.3131 40.5587 34.8787 41.1213C35.4413 41.6839 36.2044 42 37 42ZM37 38C37.1978 38 37.3911 38.0586 37.5556 38.1685C37.72 38.2784 37.8482 38.4346 37.9239 38.6173C37.9996 38.8 38.0194 39.0011 37.9808 39.1951C37.9422 39.3891 37.847 39.5673 37.7071 39.7071C37.5673 39.847 37.3891 39.9422 37.1951 39.9808C37.0011 40.0194 36.8 39.9996 36.6173 39.9239C36.4346 39.8482 36.2784 39.72 36.1685 39.5556C36.0586 39.3911 36 39.1978 36 39C36 38.7348 36.1054 38.4804 36.2929 38.2929C36.4804 38.1054 36.7348 38 37 38Z"
        fill="#650672" />
    <path
        d="M52 16C52.5933 16 53.1734 15.8241 53.6667 15.4944C54.1601 15.1648 54.5446 14.6962 54.7716 14.1481C54.9987 13.5999 55.0581 12.9967 54.9424 12.4147C54.8266 11.8328 54.5409 11.2982 54.1213 10.8787C53.7018 10.4591 53.1672 10.1734 52.5853 10.0576C52.0033 9.9419 51.4001 10.0013 50.852 10.2284C50.3038 10.4554 49.8352 10.8399 49.5056 11.3333C49.1759 11.8266 49 12.4067 49 13C49 13.7957 49.3131 14.5587 49.8787 15.1213C50.4413 15.6839 51.2044 16 52 16ZM52 12C52.1978 12 52.3911 12.0587 52.5556 12.1685C52.72 12.2784 52.8482 12.4346 52.9239 12.6173C52.9996 12.8 53.0194 13.0011 52.9808 13.1951C52.9422 13.3891 52.847 13.5673 52.7071 13.7071C52.5673 13.847 52.3891 13.9422 52.1951 13.9808C52.0011 14.0194 51.8 13.9996 51.6173 13.9239C51.4346 13.8482 51.2784 13.72 51.1685 13.5556C51.0586 13.3911 51 13.1978 51 13C51 12.7348 51.1054 12.4804 51.2929 12.2929C51.4804 12.1054 51.7348 12 52 12Z"
        fill="#650672" />
</svg>